# xmcd
# Copyright (C) 1995-1998 Ti Kan
#
# Track frame offsets:
#       150
#       21424
#       39024
#       60158
#       71195
#
# Disc length: 1248 seconds
#
# Revision: 0
# Processed by: cddbd v1.5.2PL0 Copyright (c) Steve Scherf et al.
# Submitted via: CD-Import v1.0
#
DISCID=3804de05
DTITLE=Synsòma - Synsòma
DYEAR=07
DGENRE=
TTITLE0=Fluidi E I Ricordi
TTITLE1=No (Vorrei Non Essere Come Te)
TTITLE2=Lasciare Il Corpo
TTITLE3=Hic Et Nunc
TTITLE4=Demian
EXTD=
EXTT0=
EXTT1=
EXTT2=
EXTT3=
EXTT4=
PLAYORDER=
